<?xml version="1.0" encoding="UTF-8" standalone="no"?>
<!-- Generator: Adobe Illustrator 16.0.4, SVG Export Plug-In . SVG Version: 6.00 Build 0)  -->

<svg
   xmlns:dc="http://purl.org/dc/elements/1.1/"
   xmlns:cc="http://creativecommons.org/ns#"
   xmlns:rdf="http://www.w3.org/1999/02/22-rdf-syntax-ns#"
   xmlns:svg="http://www.w3.org/2000/svg"
   xmlns="http://www.w3.org/2000/svg"
   xmlns:sodipodi="http://sodipodi.sourceforge.net/DTD/sodipodi-0.dtd"
   xmlns:inkscape="http://www.inkscape.org/namespaces/inkscape"
   version="1.1"
   id="Layer_1"
   x="0px"
   y="0px"
   width="512px"
   height="512px"
   viewBox="0 0 512 512"
   enable-background="new 0 0 512 512"
   xml:space="preserve"
   sodipodi:docname="erp-icon.svg"
   inkscape:version="0.92.1 r15371"><metadata
     id="metadata45"><rdf:RDF><cc:Work
         rdf:about=""><dc:format>image/svg+xml</dc:format><dc:type
           rdf:resource="http://purl.org/dc/dcmitype/StillImage" /></cc:Work></rdf:RDF></metadata><defs
     id="defs43" /><sodipodi:namedview
     pagecolor="#ffffff"
     bordercolor="#666666"
     borderopacity="1"
     objecttolerance="10"
     gridtolerance="10"
     guidetolerance="10"
     inkscape:pageopacity="0"
     inkscape:pageshadow="2"
     inkscape:window-width="1366"
     inkscape:window-height="715"
     id="namedview41"
     showgrid="false"
     inkscape:zoom="0.4609375"
     inkscape:cx="240.81356"
     inkscape:cy="258.16949"
     inkscape:window-x="-8"
     inkscape:window-y="-8"
     inkscape:window-maximized="1"
     inkscape:current-layer="Layer_1" /><g
     id="g4"
     style="fill:#cdaa1c;fill-opacity:1"><path
       fill="#7574FF"
       d="M512,448c0,35.2-28.8,64-64,64H64c-35.2,0-64-28.8-64-64V64C0,28.8,28.8,0,64,0h384c35.2,0,64,28.8,64,64   V448z"
       id="path2"
       style="fill:#cdaa1c;fill-opacity:1" /></g><g
     id="g10" /><g
     id="g12" /><g
     id="g14" /><g
     id="g16" /><g
     id="g18" /><g
     id="g20" /><g
     id="g22" /><g
     id="g24" /><g
     id="g26" /><g
     id="g28" /><g
     id="g30" /><g
     id="g32" /><g
     id="g34" /><g
     id="g36" /><g
     id="g38" /><path
     inkscape:export-ydpi="33.909401"
     inkscape:export-xdpi="33.909401"
     inkscape:connector-curvature="0"
     id="path29"
     d="m 231.88276,77.893829 -102.41077,193.986281 26.91336,1.74764 29.01062,2.09717 25.86486,-2.4467 20.62193,-36.00102 17.12673,29.70959 28.661,-4.19434 36.70016,-8.73805 11.53427,-4.54387 z"
     style="fill:#000000;stroke:none;stroke-width:2.24682784px;stroke-linecap:butt;stroke-linejoin:miter;stroke-opacity:1" /><path
     inkscape:export-ydpi="33.909401"
     inkscape:export-xdpi="33.909401"
     sodipodi:nodetypes="ccscc"
     inkscape:connector-curvature="0"
     id="path31"
     d="M 65.858461,389.3206 C 224.51328,382.37767 310.87511,326.7718 402.80045,276.77359 376.37011,319.81435 293.01773,367.27652 213.57955,398.9255 153.6202,422.81395 95.398967,437.68335 44.886976,433.36078 Z"
     style="opacity:1;fill:#000000;fill-opacity:1;stroke:none;stroke-width:2.24682784;stroke-opacity:1" /><path
     inkscape:export-ydpi="33.909401"
     inkscape:export-xdpi="33.909401"
     style="opacity:1;fill:#ffffff;fill-opacity:1;stroke:none;stroke-width:2.24682784;stroke-opacity:1"
     d="M 95.218547,335.4938 C 171.18605,332.16937 264.97902,305.63016 318.68303,287.95434 377.13761,268.7149 389.14446,257.39335 441.94722,231.33539 415.5213,274.38056 333.97236,315.95663 252.72633,345.79776 192.14078,368.0504 124.75904,383.85654 74.247062,379.53397 Z"
     id="path33"
     inkscape:connector-curvature="0"
     sodipodi:nodetypes="cscscc" /><path
     inkscape:export-ydpi="33.909401"
     inkscape:export-xdpi="33.909401"
     sodipodi:nodetypes="ccscc"
     inkscape:connector-curvature="0"
     id="path35"
     d="m 128.07388,277.47265 c 120.7436,6.15097 266.04024,-53.70571 339.03914,-89.47838 -26.42592,43.04517 -102.38249,74.13555 -183.62852,103.97668 -60.58546,22.25264 -127.96728,28.27207 -178.47925,23.9495 z"
     style="opacity:1;fill:#ffffff;fill-opacity:1;stroke:none;stroke-width:2.24682784;stroke-opacity:1" /></svg>